<?xml version="1.0" encoding="UTF-8"?>
<!DOCTYPE svg PUBLIC "-//W3C//DTD SVG 1.1//EN" "http://www.w3.org/Graphics/SVG/1.1/DTD/svg11.dtd">
<!-- Creator: CorelDRAW -->
<svg xmlns="http://www.w3.org/2000/svg" xml:space="preserve" width="3.51854in" height="3.29938in" style="shape-rendering:geometricPrecision; text-rendering:geometricPrecision; image-rendering:optimizeQuality; fill-rule:evenodd; clip-rule:evenodd"
viewBox="0 0 3.51854 3.29938"
 xmlns:xlink="http://www.w3.org/1999/xlink">
 <defs>
  <style type="text/css">
   <![CDATA[
    .fil7 {fill:#001E80}
    .fil4 {fill:#40160C}
    .fil8 {fill:#4AD291}
    .fil5 {fill:#FCD08D}
    .fil2 {fill:#40160C;fill-rule:nonzero}
    .fil1 {fill:#FFC776;fill-rule:nonzero}
    .fil3 {fill:black;fill-opacity:0.200000}
    .fil0 {fill:black;fill-rule:nonzero;fill-opacity:0.200000}
    .fil6 {fill:#FEFEFE;fill-opacity:0.701961}
   ]]>
  </style>
 </defs>
 <g id="Layer_x0020_1">
  <metadata id="CorelCorpID_0Corel-Layer"/>
  <g id="_284817280">
   <path id="_282830752" class="fil0" d="M2.64663 1.91592c-0.0520433,0.409453 -0.187878,0.75837 -0.388713,1.00288 -0.197543,0.240457 -0.45735,0.380689 -0.762358,0.380579 -0.302689,-8.66142e-005 -0.545835,-0.128902 -0.729193,-0.35761 -0.189283,-0.236118 -0.313472,-0.57924 -0.372315,-0.996476l0.0157638 -0.075315 -0.00344094 -0.0912874 0.547913 -0.102031 0.561701 -0.0353031 0.434047 0.0112874 0.63635 0.103886 0.0689921 -0.0107205 -0.00874803 0.17011z"/>
   <path id="_282830824" class="fil1" d="M2.73063 1.75039c-0.054748,0.433291 -0.197634,0.802528 -0.408894,1.06128 -0.207811,0.254465 -0.48111,0.402858 -0.801957,0.402744 -0.318413,-8.66142e-005 -0.574185,-0.136406 -0.767067,-0.378429 -0.206858,-0.259591 -0.411016,-0.864965 -0.373776,-1.19498 0.267748,-0.100634 0.695787,-0.165819 1.17822,-0.165819 0.482937,0 0.911346,0.0653307 1.17904,0.166134l-0.00556693 0.109075z"/>
   <path id="_282832432" class="fil2" d="M2.60536 2.35485c-0.0697008,0.180902 -0.159343,0.339874 -0.266362,0.470961 -0.107465,0.131594 -0.232382,0.235409 -0.372252,0.305634 -0.135193,0.0678937 -0.284272,0.104394 -0.44498,0.104339 -0.159709,-4.33071e-005 -0.304071,-0.0337283 -0.432969,-0.0973189 -0.133201,-0.0657047 -0.249776,-0.163276 -0.349594,-0.288535 -0.100898,-0.12661 -0.180988,-0.282654 -0.243583,-0.462744 -0.0689331,-0.198283 -0.158402,-0.530484 -0.134878,-0.739185l0 0.00404724c0.00720472,-0.00285433 0.0145394,-0.00568504 0.0220157,-0.00848425 -0.0371811,0.329484 0.166646,0.93389 0.373173,1.19306 0.191008,0.239673 0.443815,0.375492 0.758118,0.377764l0.00771654 5.90551e-005 0.00777559 -5.90551e-005c0.316961,-0.00227165 0.587094,-0.150043 0.792898,-0.402039l0.00475984 -0.00589764 0.00144882 -0.00176378c0.00644094,-0.00788583 0.0127205,-0.0158898 0.0188622,-0.0240197 0.241508,-0.314079 0.368685,-0.744161 0.388724,-1.13679l-0.000996063 -0.000385827c0.00746063,0.00281496 0.0147835,0.00562992 0.0219724,0.00847244 -0.0123622,0.242331 -0.064185,0.475335 -0.15185,0.702886zm0.109882 -0.718661l0 -3.14961e-005 0.00672047 0.00243307 -0.00672047 -0.00240157z"/>
   <path id="_282832768" class="fil3" d="M2.65526 1.61344l8.66142e-005 0.136476c-0.252713,-0.10022 -0.500815,-0.21385 -0.972091,-0.21385 -0.471276,0 -1.05548,0.144937 -1.30821,0.245142l-0.00084252 -0.138413c0.267421,-0.101657 0.697669,-0.167614 1.18296,-0.167614 0.436827,0 0.829063,0.0534409 1.09809,0.13826z"/>
   <g>
    <path id="_282833944" class="fil2" d="M1.33065 2.68729l-0.0295512 0.0639449 -0.00128346 -0.00100394 -0.00122835 -0.00107087 -0.00116929 -0.0011378 -0.00111811 -0.00120079 -0.00105906 -0.00125984 -0.001 -0.00131496 -0.000944882 -0.00137008 -0.00088189 -0.00142126 -0.000826772 -0.0014685 -0.00076378 -0.00151181 -0.000704724 -0.00155118 -0.000641732 -0.00159055 -0.00057874 -0.00162205 -0.000519685 -0.00165354 -0.000452756 -0.00168504 -0.000389764 -0.00170472 -0.000322835 -0.00172835 -0.000259843 -0.00174803 -0.000192913 -0.00176378 -0.000125984 -0.00177165 -5.90551e-005 -0.00178346 7.87402e-006 -0.00179134 7.87402e-005 -0.0017874 0.000149606 -0.00179134 0.000216535 -0.0017874 0.000287402 -0.00177953 0.000362205 -0.00176772 0.000429134 -0.00175591 0.000507874 -0.00174016 0.00057874 -0.00171654 0.000649606 -0.00169685 0.000728346 -0.00166929 0.000791339 -0.00162205 0.000850394 -0.00155118 0.000897638 -0.00148031 0.000952756 -0.00140945 0.000996063 -0.00133858 0.00104331 -0.00126772 0.00108268 -0.00118898 0.00112598 -0.00111811 0.00116142 -0.00104331 0.00119291 -0.000964567 0.00122835 -0.000889764 0.00125984 -0.000811024 0.00128346 -0.000732283 0.00131102 -0.000653543 0.00133071 -0.000574803 0.00135039 -0.000492126 0.00137008 -0.000409449 0.00138189 -0.000326772 0.0013937 -0.000244094 0.00140551 -0.000161417 0.00140945 -7.08661e-005 0.00141732 1.1811e-005 0.00141732 9.84252e-005 0.00141732 0.000185039 0.00141339 0.000275591 0.00140551 0.000366142 0.00140157 0.000452756 0.00138976 0.000547244 0.00137402 0.000637795 0.0013622 0.000732283 0.00133858 0.000826772 0.00132283 0.000917323zm0.479311 -0.00164567l0.0216614 0.0688031 -0.0287992 0.0137205 -0.0282559 0.012 -0.0276732 0.0103425 -0.0270669 0.00877559 -0.026437 0.00729134 -0.0257795 0.00588189 -0.0251024 0.00456693 -0.0243976 0.00332677 -0.0236732 0.00217717 -0.0229173 0.0011063 -0.0221457 0.000125984 -0.0213425 -0.000771654 -0.0205276 -0.00158268 -0.019685 -0.00230709 -0.0188189 -0.00294488 -0.0179331 -0.0035 -0.0170276 -0.00396457 -0.0161024 -0.00435039 -0.0151496 -0.00464173 -0.0141811 -0.00485039 -0.0131969 -0.00497638 -0.012185 -0.00501181 -0.0111614 -0.00497244 -0.0101063 -0.00483465 -0.00903543 -0.00461417 -0.00795669 -0.00431496 -0.00685039 -0.00393701 -0.0057126 -0.00345669 -0.00456693 -0.00289764 -0.00339764 -0.00225591 -0.00216929 -0.00150394 -0.00116929 -0.000838583 0.0295512 -0.0639449 2.75591e-005 1.9685e-005 0.00138976 0.000968504 0.00248425 0.00164961 0.0036063 0.00229134 0.00469685 0.00284252 0.00575591 0.00330709 0.00682283 0.00370079 0.00785433 0.00401575 0.00887008 0.00424409 0.00985433 0.00438976 0.0108307 0.00445276 0.0117795 0.00444882 0.0127087 0.00434646 0.013622 0.00417717 0.0145039 0.00391732 0.015374 0.00357874 0.0162244 0.00316929 0.0170551 0.00266929 0.0178661 0.00209449 0.0186614 0.00144094 0.0194291 0.000700787 0.020185 -0.000110236 0.0209252 -0.00101181 0.0216496 -0.00198819 0.0223425 -0.00304331 0.0230394 -0.00418898 0.0237087 -0.00540945 0.0243583 -0.00671654 0.0250039 -0.0081063 0.0256181 -0.00957874 0.0262323 -0.0111339 0.0268307 -0.0127835zm0.0216614 0.0688031l-0.0216614 -0.0688031 0.00141339 -0.00065748 0.0014252 -0.000562992 0.00143307 -0.000464567 0.00143701 -0.000374016 0.00143701 -0.000275591 0.00143701 -0.000185039 0.00143701 -9.84252e-005 0.00142913 -3.93701e-006 0.00142126 8.26772e-005 0.00141339 0.000169291 0.00140157 0.000255906 0.00138583 0.000338583 0.00137008 0.000425197 0.00135039 0.000503937 0.00133071 0.000582677 0.00130315 0.000665354 0.00127953 0.000740157 0.00124803 0.000818898 0.00121654 0.000893701 0.00118504 0.000968504 0.00114567 0.00103937 0.00111024 0.00111024 0.00106693 0.0011811 0.00102756 0.00124803 0.000980315 0.0013189 0.000929134 0.00138189 0.00088189 0.00144882 0.000826772 0.00151181 0.000771654 0.0015748 0.000716535 0.00163386 0.000653543 0.00169291 0.000594488 0.00175197 0.000523622 0.0017874 0.000444882 0.00179921 0.000366142 0.00181102 0.000295276 0.00181102 0.000220472 0.0018189 0.000145669 0.00181496 7.48031e-005 0.00181496 3.93701e-006 0.00180709 -6.69291e-005 0.00179921 -0.000133858 0.00178346 -0.000200787 0.00177165 -0.000267717 0.00175197 -0.000334646 0.00172835 -0.000401575 0.00170866 -0.00046063 0.00167717 -0.000527559 0.00164961 -0.000586614 0.00161417 -0.000645669 0.00157874 -0.000708661 0.00153543 -0.00076378 0.00149606 -0.000822835 0.00145276 -0.00088189 0.00140157 -0.000933071 0.00135039 -0.000988189 0.00129528 -0.00104331 0.00123622 -0.00109449 0.00117717 -0.00114567 0.00111024 -0.00119685 0.00104724 -0.00124803 0.000976378 -0.00129134 0.000905512 -0.00134252 0.000826772 -0.00138583 0.000748031z"/>
   </g>
   <g>
    <path class="fil2" d="M1.4872 2.93622l0.0117165 0.0456614 -0.00069685 0.000484252 -0.000704724 0.000417323 -0.000708661 0.000354331 -0.000712598 0.000287402 -0.000712598 0.000228346 -0.000716535 0.000165354 -0.000712598 0.000106299 -0.000716535 4.33071e-005 -0.000708661 -1.5748e-005 -0.000708661 -7.48031e-005 -0.000704724 -0.000133858 -0.00069685 -0.000188976 -0.000688976 -0.000244094 -0.000681102 -0.00030315 -0.000669291 -0.000354331 -0.000661417 -0.000409449 -0.000645669 -0.000464567 -0.000633858 -0.000511811 -0.00061811 -0.000566929 -0.000606299 -0.00061811 -0.000586614 -0.000665354 -0.000566929 -0.000716535 -0.000547244 -0.00076378 -0.000527559 -0.000811024 -0.000507874 -0.000858268 -0.000484252 -0.000905512 -0.000456693 -0.000948819 -0.000433071 -0.000992126 -0.000405512 -0.00103543 -0.000377953 -0.00107874 -0.000350394 -0.00112205 -0.000318898 -0.00116142 -0.000283465 -0.00118898 -0.000244094 -0.00119685 -0.000208661 -0.00120472 -0.000169291 -0.0012126 -0.000133858 -0.00121654 -9.84252e-005 -0.00121654 -6.29921e-005 -0.00121654 -2.3622e-005 -0.00121654 7.87402e-006 -0.0012126 4.33071e-005 -0.00120472 7.87402e-005 -0.00119685 0.000110236 -0.00118504 0.000145669 -0.00117323 0.000177165 -0.00115748 0.000208661 -0.00114173 0.000240157 -0.00112205 0.000271654 -0.0011063 0.00030315 -0.00107874 0.000330709 -0.00105512 0.000362205 -0.00102756 0.000393701 -0.000996063 0.000417323 -0.000968504 0.000448819 -0.000933071 0.000476378 -0.000901575 0.000503937 -0.000858268 0.000531496 -0.000822835 0.000559055 -0.000783465 0.000582677 -0.00073622 0.000606299 -0.000692913 0.000633858 -0.000641732 0.000661417 -0.000594488 0.000681102 -0.000543307zm0.167693 0.0378031l-0.0227638 -0.0313071 -0.000783465 0.0287165 0.00454331 0.00722047 0.00084252 0.000685039 -0.000767717 -0.000393701 -0.00173228 -0.000720472 -0.00242913 -0.000862205 -0.00301575 -0.000929134 -0.00351575 -0.00096063 -0.00396457 -0.000964567 -0.0043622 -0.000952756 -0.0047126 -0.00092126 -0.0050315 -0.000874016 -0.00530315 -0.000814961 -0.00554331 -0.000748031 -0.00574016 -0.00065748 -0.00590945 -0.000562992 -0.0060315 -0.000448819 -0.00612598 -0.000326772 -0.0061811 -0.000188976 -0.00619685 -4.33071e-005 -0.00617717 0.00011811 -0.00612598 0.000287402 -0.00602362 0.000464567 -0.00588976 0.000661417 -0.00571654 0.000854331 -0.0055 0.00106299 -0.00523622 0.00127165 -0.00493701 0.00148425 -0.00457874 0.00167717 -0.00416929 0.00187008 -0.00370472 0.00202362 -0.00319291 0.0021378 -0.0117165 -0.0456614 0.00509843 -0.00342126 0.00533465 -0.00292126 0.00555512 -0.00249213 0.00575984 -0.00211811 0.00595276 -0.00178346 0.00612598 -0.00149213 0.00627953 -0.0012126 0.00640945 -0.000964567 0.00650394 -0.000724409 0.00658268 -0.000511811 0.00662205 -0.000311024 0.00664173 -0.000125984 0.00662205 4.33071e-005 0.0065748 0.000204724 0.00650394 0.00034252 0.0063937 0.000480315 0.00624803 0.000594488 0.00607874 0.00069685 0.00587402 0.000787402 0.00564173 0.000870079 0.00537795 0.000937008 0.00508268 0.000992126 0.00476378 0.00103937 0.00441339 0.0010748 0.00405118 0.00110236 0.00367717 0.00113386 0.00331102 0.00117717 0.00299213 0.00126378 0.00287008 0.00151181 0.00333858 0.00249606 0.00581102 0.00889764 -0.000799213 0.0302362zm-0.0227638 -0.0313071l0.0227638 0.0313071 -0.000488189 0.000976378 -0.000511811 0.000925197 -0.000531496 0.000870079 -0.000551181 0.000814961 -0.000570866 0.00076378 -0.000590551 0.000708661 -0.000606299 0.000653543 -0.000622047 0.000598425 -0.000633858 0.000547244 -0.000649606 0.000488189 -0.00065748 0.000437008 -0.000669291 0.000377953 -0.000677165 0.000322835 -0.000685039 0.000267717 -0.000692913 0.000212598 -0.00069685 0.000153543 -0.000700787 9.84252e-005 -0.000700787 3.93701e-005 -0.000700787 -1.5748e-005 -0.000704724 -7.08661e-005 -0.000700787 -0.000133858 -0.00069685 -0.000188976 -0.00069685 -0.000244094 -0.000685039 -0.000307087 -0.000681102 -0.000362205 -0.000677165 -0.00042126 -0.000661417 -0.000484252 -0.000653543 -0.00053937 -0.000641732 -0.000598425 -0.000625984 -0.000661417 -0.000614173 -0.000720472 -0.000598425 -0.000779528 -0.000574803 -0.000830709 -0.00053937 -0.000870079 -0.000511811 -0.000905512 -0.000480315 -0.000940945 -0.000448819 -0.000972441 -0.000413386 -0.00100394 -0.000385827 -0.00103543 -0.000350394 -0.00105512 -0.000322835 -0.00108268 -0.000287402 -0.00110236 -0.000255906 -0.00112205 -0.000220472 -0.00114173 -0.000188976 -0.00115354 -0.00015748 -0.00116535 -0.000125984 -0.00117717 -9.05512e-005 -0.00118504 -5.90551e-005 -0.00119291 -2.3622e-005 -0.00119685 1.1811e-005 -0.00119685 4.33071e-005 -0.00119685 7.48031e-005 -0.00119291 0.000110236 -0.00118898 0.000145669 -0.0011811 0.000181102 -0.00117323 0.000212598 -0.00115748 0.000248031 -0.00114961 0.000283465 -0.00112992 0.000314961 -0.00111024 0.000354331 -0.00109449 0.000385827 -0.00106693 0.000425197 -0.00104724 0.000456693 -0.00101575z"/>
   </g>
   <path class="fil3" d="M2.42831 1.78383c0.121504,0.0026063 0.17415,0.0661929 0.298571,0.0661929 0.0771772,-0.000791339 0.0689921,0.125528 0.0282795,0.172283 -0.055626,0.0543307 -0.0740551,0.0762244 -0.0816772,0.144673 -0.000232283,0.0642244 -0.00880315,0.131732 -0.0223898,0.199016 -0.136189,0.58026 -0.943264,0.373094 -1.03519,-0.176496l-0.00338583 -0.0052126c-0.0149252,-0.0416693 -0.0425236,-0.0696496 -0.0740906,-0.0696496 -0.0324921,0 -0.0607638,0.029622 -0.0753661,0.073315 -0.0906693,0.550744 -0.899122,0.75885 -1.03545,0.178043 -0.0160039,-0.0792717 -0.0250472,-0.15885 -0.0217047,-0.233016 -0.000838583,0.0118504 -0.00127953,0.0232323 -0.00140157,0.034 -0.00762205,-0.0684488 -0.0260512,-0.0903425 -0.0816772,-0.144673 -0.0407126,-0.0467559 -0.0488937,-0.173075 0.0282795,-0.172283 0.151465,0 0.383681,-0.100075 0.618697,-0.100075 0.233181,0.0138268 0.356543,0.0483031 0.422622,0.10424l-0.000452756 -0.000535433c0.0318661,0.0168189 0.0858031,0.0278661 0.146976,0.0278661 0.0630591,0 0.118406,-0.0117441 0.149831,-0.0294252 0.0666654,-0.0547047 0.189858,-0.0884921 0.420122,-0.102146 0.146004,0 0.247028,0.0126063 0.319406,0.0338819z"/>
   <path class="fil4" d="M2.50679 1.71888c0.128217,0.0026063 0.183772,0.066189 0.315059,0.066189 0.0814409,-0.000791339 0.0728031,0.125531 0.0298425,0.172283 -0.0586969,0.0543307 -0.0781457,0.0762244 -0.086185,0.144677 -0.000248031,0.0642244 -0.00929134,0.131732 -0.0236299,0.199016 -0.143709,0.58026 -0.995354,0.373094 -1.09235,-0.176496l-0.0035748 -0.0052126c-0.015748,-0.0416693 -0.0448701,-0.0696496 -0.0781811,-0.0696496 -0.0342874,0 -0.0641181,0.029622 -0.0795315,0.073315 -0.0956732,0.55074 -0.948776,0.75885 -1.09263,0.178043 -0.0168898,-0.0792756 -0.0264331,-0.15885 -0.0229055,-0.233016 -0.000885827,0.0118504 -0.00135039,0.0232323 -0.00148031,0.034 -0.00803937,-0.0684528 -0.0274882,-0.0903465 -0.086185,-0.144677 -0.0429606,-0.046752 -0.0515984,-0.173075 0.0298425,-0.172283 0.159827,0 0.404866,-0.100071 0.652862,-0.100071 0.246063,0.0138268 0.376236,0.0483031 0.445965,0.10424l-0.000476378 -0.000535433c0.033626,0.0168189 0.0905394,0.0278622 0.155091,0.0278622 0.0665433,0 0.124945,-0.0117441 0.158106,-0.0294213 0.0703465,-0.0547047 0.200346,-0.0884921 0.443323,-0.102146 0.154067,0 0.260669,0.0126024 0.337047,0.0338819z"/>
   <path class="fil4" d="M1.42581 0.275575c0.0265079,-0.00357087 0.0537283,-0.00627559 0.0815433,-0.00781496l-7.08661e-005 -0.00130709c-7.08661e-005,-0.00193701 -9.84252e-005,-0.00375984 -9.84252e-005,-0.00551181 0,-0.0226496 0.00559449,-0.043189 0.0146063,-0.0580669l2.75591e-005 -1.5748e-005 1.5748e-005 -1.1811e-005c0.00905118,-0.0148622 0.0215512,-0.0240591 0.0353189,-0.0240591 0.0137913,0 0.0262913,0.00919685 0.0353465,0.0240709l0 -1.1811e-005c0.00903937,0.0148622 0.0146496,0.0354016 0.0146496,0.0580945 0,0.00148031 -4.33071e-005,0.00316142 -0.000102362,0.00489764l-7.08661e-005 0.00161024c0.0268937,0.00137795 0.0541102,0.004 0.0815276,0.00802756 -0.00992126,-0.0949252 -0.0562874,-0.169079 -0.114354,-0.18135l-2.75591e-005 -1.1811e-005 -0.00333071 -0.000625984 -1.5748e-005 -1.5748e-005 -0.0030748 -0.000440945 -0.000271654 -4.33071e-005 -2.75591e-005 0 -0.000228346 -2.75591e-005 -0.0030315 -0.000314961 -0.000114173 -1.1811e-005 -1.5748e-005 0 -7.08661e-005 0 -0.00327165 -0.000216535 -5.90551e-005 0 -1.1811e-005 0 -3.14961e-005 0 -0.00340157 -7.08661e-005 -0.00340157 7.08661e-005 -2.75591e-005 0 -1.5748e-005 0 -5.51181e-005 0 -0.00327559 0.000216535 -7.08661e-005 0 -1.5748e-005 0 -0.000114173 1.1811e-005 -0.0030315 0.000314961 -0.000228346 2.75591e-005 -2.75591e-005 0 -0.000271654 4.33071e-005 -0.0030748 0.000440945 -1.1811e-005 1.5748e-005 -0.00333071 0.000625984 -3.14961e-005 1.1811e-005c-0.0580945,0.0122441 -0.104488,0.0864685 -0.11437,0.181449z"/>
   <g>
    <path class="fil4" d="M0.701815 0c-0.38761,0 -0.701815,0.0578898 -0.701815,0.12928 0,0.0714094 0.314205,0.129299 0.701815,0.129299 0.387606,0 0.701811,-0.0578898 0.701811,-0.129299 0,-0.0713898 -0.314205,-0.12928 -0.701811,-0.12928z"/>
    <path class="fil4" d="M2.41252 0c0.387606,0 0.701811,0.0578898 0.701811,0.129299 0,0.0714094 -0.314205,0.12928 -0.701811,0.12928 -0.38761,0 -0.701815,-0.0578701 -0.701815,-0.12928 0,-0.0714094 0.314205,-0.129299 0.701815,-0.129299z"/>
   </g>
   <path class="fil5" d="M0.960929 1.78435c0.395445,0.0222087 0.414543,0.111492 0.420807,0.27324 -0.00627559,0.492673 -0.754972,0.703772 -0.875661,0.216524 -0.0269331,-0.126406 -0.0303504,-0.253807 0.0263622,-0.345457 0.0487165,-0.0787165 0.11515,-0.144307 0.428492,-0.144307z"/>
   <path class="fil6" d="M0.926819 1.84333c0.158917,0.00645276 0.219114,0.0250157 0.237079,0.0562402 -0.0370433,-0.0110866 -0.0947795,-0.0183622 -0.182756,-0.0219409 -0.206098,0 -0.259709,0.0308425 -0.303665,0.0678583 -0.0511575,0.0430906 -0.068185,0.102996 -0.0695866,0.162441 0.000818898,0.0328346 0.0123268,0.0589055 0.0316063,0.0788268 -0.0508976,-0.0193504 -0.0845118,-0.0560433 -0.0859291,-0.11313 0.00138583,-0.0594409 0.0184134,-0.11935 0.0695669,-0.162437 0.0439606,-0.0370157 0.0975709,-0.0678583 0.303685,-0.0678583z"/>
   <path class="fil5" d="M2.17656 1.78435c-0.395445,0.0222087 -0.414543,0.111492 -0.420807,0.27324 0.00627559,0.492673 0.754972,0.703772 0.875661,0.216524 0.0269331,-0.126406 0.0303504,-0.253807 -0.0263622,-0.345457 -0.0487165,-0.0787165 -0.11515,-0.144307 -0.428492,-0.144307z"/>
   <polygon class="fil4" points="2.55329,2.15334 2.22995,1.9694 2.20335,2.05571 2.3656,2.15278 2.20556,2.24796 2.23217,2.33616 "/>
   <rect class="fil4" transform="matrix(0.919931 -0 -0.298256 0.919928 2.11944 1.93356)" width="0.0746693" height="0.442669"/>
   <polygon class="fil4" points="0.703051,2.15508 1.03363,1.96702 1.06083,2.05527 0.894945,2.15451 1.05857,2.25183 1.03136,2.342 "/>
   <path class="fil6" d="M2.18831 1.84333c0.158917,0.00645276 0.219114,0.0250157 0.237079,0.0562402 -0.0370433,-0.0110866 -0.0947795,-0.0183622 -0.182756,-0.0219409 -0.206098,0 -0.259709,0.0308425 -0.303665,0.0678583 -0.0511575,0.0430906 -0.068185,0.102996 -0.0695866,0.162441 0.000818898,0.0328346 0.0123268,0.0589055 0.0316063,0.0788268 -0.0508976,-0.0193504 -0.0845118,-0.0560433 -0.0859291,-0.11313 0.00138583,-0.0594409 0.0184134,-0.11935 0.0695669,-0.162437 0.0439606,-0.0370157 0.0975709,-0.0678583 0.303685,-0.0678583z"/>
   <path class="fil3" d="M2.65861 1.7069l0.751724 0.301425c0.0140945,0.00674409 0.0094252,0.025063 0.0083622,0.0339213 -0.00106693,0.00885827 -0.122732,0.221709 -0.418354,0.283138 -0.295622,0.0614291 -0.512039,-0.214594 -0.512039,-0.214594l-0.484846 -0.54263 0.312909 0.0430433 0.342244 0.0956969z"/>
   <path class="fil7" d="M2.75722 1.68719l0.750299 0.275079c0.0155906,0.00648031 0.0104252,0.0240787 0.00924803,0.0325866 -0.00117717,0.00851181 -0.135791,0.212972 -0.462874,0.27198 -0.327079,0.0590118 -0.566528,-0.206138 -0.566528,-0.206138l-0.569591 -0.554398 0.638283 0.0885906 0.201161 0.0922992z"/>
   <path class="fil8" d="M1.5571 0.265689c0.66287,0 1.20023,0.53737 1.20023,1.20024l0.00011811 0.183571c-0.265925,-0.105453 -0.704382,-0.174319 -1.20028,-0.174319 -0.49589,0 -0.934339,0.0688661 -1.20027,0.174315l-1.1811e-005 -0.183567c0,-0.66287 0.537358,-1.20024 1.20022,-1.20024z"/>
   <path class="fil7" d="M2.42958 1.55564l-2.75591e-005 -0.0564921c0,-0.599598 -0.296083,-1.10019 -0.690638,-1.21976 0.576606,0.087626 1.01841,0.585492 1.01841,1.18654l0.000114173 0.183567c-0.0907244,-0.0359764 -0.201539,-0.0676811 -0.327858,-0.0938543zm-0.872429 -1.28994l2.75591e-005 0c0.223488,4.33071e-005 0.405083,0.546815 0.408827,1.22565 -0.129791,-0.0105157 -0.266953,-0.0161575 -0.408843,-0.0161575 -0.141906,0 -0.279067,0.00564173 -0.408854,0.0161575 0.00374409,-0.678807 0.185327,-1.22555 0.408783,-1.22565l5.90551e-005 0zm-0.872476 1.28996c-0.126287,0.0261772 -0.237075,0.0578819 -0.327787,0.0938425l-1.1811e-005 -0.183567c0,-0.600996 0.441744,-1.09883 1.01825,-1.18653 -0.394465,0.119646 -0.690449,0.62024 -0.690449,1.21975l0 0.0565039z"/>
   <path class="fil2" d="M2.75719 1.64928l4.33071e-005 0.0379094c-0.341827,-0.135425 -0.832571,-0.179736 -1.20019,-0.179736 -0.366193,0 -0.935472,0.0677205 -1.20013,0.179866l-1.5748e-005 -0.0378937c0.327819,-0.131055 0.853138,-0.177949 1.20015,-0.177949 0.346953,0 0.886972,0.0495827 1.20015,0.177803z"/>
  </g>
 </g>
</svg>
