<?xml version="1.0" encoding="utf-8"?>
<!-- Generator: Adobe Illustrator 16.0.0, SVG Export Plug-In . SVG Version: 6.00 Build 0)  -->
<!DOCTYPE svg PUBLIC "-//W3C//DTD SVG 1.1//EN" "http://www.w3.org/Graphics/SVG/1.1/DTD/svg11.dtd">
<svg version="1.1" id="Layer_1" xmlns="http://www.w3.org/2000/svg" xmlns:xlink="http://www.w3.org/1999/xlink" x="0px" y="0px"
	 width="20px" height="20px" viewBox="0 0 20 20" enable-background="new 0 0 20 20" xml:space="preserve">
<path fill="#A5A5A5" d="M16.721,3.279c-3.706-3.705-9.735-3.705-13.441,0c-3.706,3.706-3.706,9.735,0,13.441
	c3.706,3.705,9.736,3.705,13.441,0C20.426,13.015,20.426,6.985,16.721,3.279z M4.511,15.489c-3.027-3.026-3.027-7.951,0-10.979
	c3.027-3.026,7.952-3.026,10.978,0c3.026,3.027,3.026,7.952,0,10.979S7.538,18.516,4.511,15.489z"/>
<path fill="#A5A5A5" d="M8,11.094c1.246-0.001,5.126-0.001,6.373-0.001c1.124,0,1.123-1.74,0-1.741
	C13.127,9.353,9.246,9.353,8,9.353"/>
<path fill="#A5A5A5" d="M8.896,9.353c-1.238,0-2.475,0-3.713,0c-1.124,0-1.124,1.741,0,1.741c1.237,0,2.474,0,3.712,0"/>
</svg>
