<?xml version="1.0" encoding="utf-8"?>
<!-- Generator: Adobe Illustrator 16.0.0, SVG Export Plug-In . SVG Version: 6.00 Build 0)  -->
<!DOCTYPE svg PUBLIC "-//W3C//DTD SVG 1.1//EN" "http://www.w3.org/Graphics/SVG/1.1/DTD/svg11.dtd">
<svg version="1.1" id="Layer_1" xmlns="http://www.w3.org/2000/svg" xmlns:xlink="http://www.w3.org/1999/xlink" x="0px" y="0px"
	 width="20px" height="20px" viewBox="0 0 20 20" enable-background="new 0 0 20 20" xml:space="preserve">
<g>
	<path fill="#A5A5A5" d="M16.721,3.279c-3.706-3.705-9.735-3.705-13.441,0c-3.706,3.706-3.706,9.735,0,13.441
		c3.706,3.705,9.736,3.705,13.441,0C20.426,13.015,20.426,6.985,16.721,3.279z M4.511,15.489c-3.027-3.026-3.027-7.951,0-10.979
		c3.027-3.026,7.952-3.026,10.978,0c3.026,3.027,3.026,7.952,0,10.979S7.538,18.516,4.511,15.489z"/>
	<path fill="#A5A5A5" d="M14.373,9.352c-1.246,0.001-2.491,0.001-3.737,0.001c0-1.238,0.001-2.475,0.001-3.713
		c0-1.124-1.741-1.124-1.742,0c0,1.237,0,2.475,0,3.713c-1.238,0-2.475,0-3.713,0c-1.124,0-1.124,1.741,0,1.741
		c1.237,0,2.474,0,3.712,0c0,1.245,0,2.491,0,3.735c0,1.125,1.741,1.124,1.741,0.001c0-1.246,0-2.492,0-3.736
		c1.245-0.001,2.49-0.001,3.736-0.001C15.497,11.093,15.496,9.353,14.373,9.352z"/>
</g>
</svg>
